<svg version="1.1" xmlns="http://www.w3.org/2000/svg" xmlns:xlink="http://www.w3.org/1999/xlink" width="1560" height="804"><defs/><g><path fill="none" stroke="#02063B" paint-order="fill stroke markers" d=" M 20 406.81557255654445 L 21 407.05281696803496 L 22 407.28954584294695 L 23 407.5257350279427 L 24 407.761360424749 L 25 407.99639799261547 L 26 408.23082375076785 L 27 408.4646137808544 L 28 408.69774422938644 L 29 408.9301913101722 L 30 409.1619313067434 L 31 409.3929405747755 L 32 409.6231955444996 L 33 409.8526727231077 L 34 410.0813486971493 L 35 410.3092001349206 L 36 410.5362037888448 L 37 410.76233649784393 L 38 410.98757518970245 L 39 411.21189688342065 L 40 411.4352786915599 L 41 411.65769782257763 L 42 411.8791315831528 L 43 412.09955738050115 L 44 412.3189527246805 L 45 412.53729523088543 L 46 412.754562621731 L 47 412.9707327295257 L 48 413.18578349853345 L 49 413.3996929872238 L 50 413.61243937051046 L 51 413.82400094197834 L 52 414.03435611609814 L 53 414.2434834304288 L 54 414.45136154780704 L 55 414.65796925852476 L 56 414.86328548249276 L 57 415.06728927139164 L 58 415.26995981080915 L 59 415.4712764223639 L 60 415.6712185658152 L 61 415.8697658411584 L 62 416.06689799070705 L 63 416.26259490115893 L 64 416.45683660564885 L 65 416.64960328578553 L 66 416.8408752736737 L 67 417.0306330539209 L 68 417.21885726562857 L 69 417.40552870436744 L 70 417.59062832413696 L 71 417.7741372393085 L 72 417.9560367265523 L 73 418.1363082267478 L 74 418.31493334687724 L 75 418.4918938619022 L 76 418.66717171662316 L 77 418.84074902752167 L 78 419.01260808458494 L 79 419.18273135311284 L 80 419.35110147550705 L 81 419.5177012730418 L 82 419.6825137476167 L 83 419.84552208349135 L 84 420.0067096490005 L 85 420.16605999825146 L 86 420.3235568728017 L 87 420.479184203318 L 88 420.63292611121585 L 89 420.7847669102794 L 90 420.9346911082622 L 91 421.0826834084676 L 92 421.22872871130966 L 93 421.3728121158537 L 94 421.51491892133663 L 95 421.6550346286667 L 96 421.7931449419032 L 97 421.9292357697147 L 98 422.0632932268169 L 99 422.1953036353895 L 100 422.3252535264716 L 101 422.45312964133586 L 102 422.5789189328414 L 103 422.7026085667651 L 104 422.82418592311063 L 105 422.94363859739667 L 106 423.0609544019221 L 107 423.17612136700956 L 108 423.2891277422269 L 109 423.39996199758605 L 110 423.50861282471897 L 111 423.6150691380321 L 112 423.71932007583706 L 113 423.82135500145887 L 114 423.9211635043212 L 115 424.01873540100877 L 116 424.11406073630593 L 117 424.20712978421295 L 118 424.2979330489378 L 119 424.3864612658655 L 120 424.4727054025028 L 121 424.5566566594006 L 122 424.6383064710507 L 123 424.71764650676084 L 124 424.7946686715037 L 125 424.8693651067435 L 126 424.9417281912374 L 127 425.0117505418135 L 128 425.0794250141237 L 129 425.1447447033728 L 130 425.2077029450232 L 131 425.2682933154746 L 132 425.32650963271954 L 133 425.382345956974 L 134 425.4357965912838 L 135 425.4868560821053 L 136 425.53551921986235 L 137 425.58178103947745 L 138 425.6256368208786 L 139 425.66708208948063 L 140 425.70611261664203 L 141 425.74272442009607 L 142 425.77691376435746 L 143 425.8086771611032 L 144 425.8380113695286 L 145 425.8649133966779 L 146 425.88938049774976 L 147 425.91141017637716 L 148 425.9310001848822 L 149 425.9481485245053 L 150 425.96285344560937 L 151 425.97511344785806 L 152 425.98492728036905 L 153 425.9922939418415 L 154 425.99721268065844 L 155 425.99968299496317 L 156 425.99970463271063 L 157 425.99727759169315 L 158 425.9924021195406 L 159 425.98507871369515 L 160 425.97530812136057 L 161 425.9630913394258 L 162 425.9484296143635 L 163 425.9313244421026 L 164 425.9117775678761 L 165 425.8897909860424 L 166 425.8653669398822 L 167 425.83850792136985 L 168 425.8092166709185 L 169 425.77749617710083 L 170 425.74334967634417 L 171 425.70678065260023 L 172 425.6677928369896 L 173 425.626390207421 L 174 425.58257698818574 L 175 425.53635764952617 L 176 425.4877369071801 L 177 425.43671972189935 L 178 425.3833112989438 L 179 425.32751708755006 L 180 425.2693427803758 L 181 425.2087943129186 L 182 425.14587786291065 L 183 425.08059984968827 L 184 425.01296693353686 L 185 424.9429860150117 L 186 424.87066423423346 L 187 424.7960089701601 L 188 424.7190278398335 L 189 424.6397286976029 L 190 424.55811963432313 L 191 424.47420897652916 L 192 424.3880052855866 L 193 424.2995173568181 L 194 424.2087542186062 L 195 424.1157251314719 L 196 424.0204395871299 L 197 423.9229073075203 L 198 423.82313824381635 L 199 423.7211425754096 L 200 423.61693070887094 L 201 423.51051327688884 L 202 423.4019011371847 L 203 423.2911053714049 L 204 423.1781372839902 L 205 423.0630084010224 L 206 422.94573046904804 L 207 422.82631545388034 L 208 422.70477553937803 L 209 422.5811231262025 L 210 422.4553708305522 L 211 422.3275314828757 L 212 422.19761812656253 L 213 422.0656440166124 L 214 421.93162261828263 L 215 421.7955676057146 L 216 421.65749286053824 L 217 421.51741247045607 L 218 421.37534072780534 L 219 421.2312921281004 L 220 421.0852813685532 L 221 420.937323346574 L 222 420.78743315825136 L 223 420.6356260968119 L 224 420.4819176510599 L 225 420.326323503797 L 226 420.1688595302221 L 227 420.0095417963115 L 228 419.84838655718005 L 229 419.68541025542225 L 230 419.5206295194347 L 231 419.3540611617198 L 232 419.18572217716996 L 233 419.015629741334 L 234 418.8438012086645 L 235 418.6702541107471 L 236 418.49500615451205 L 237 418.3180752204272 L 238 418.13947936067393 L 239 417.9592367973053 L 240 417.7773659203866 L 241 417.59388528611936 L 242 417.4088136149478 L 243 417.222169789649 L 244 417.03397285340606 L 245 416.84424200786543 L 246 416.6529966111775 L 247 416.46025617602163 L 248 416.26604036761535 L 249 416.0703690017077 L 250 415.87326204255777 L 251 415.6747396008973 L 252 415.4748219318793 L 253 415.2735294330111 L 254 415.0708826420732 L 255 414.866902235024 L 256 414.6616090238901 L 257 414.4550239546429 L 258 414.2471681050615 L 259 414.03806268258205 L 260 413.8277290221342 L 261 413.6161885839639 L 262 413.4034629514444 L 263 413.1895738288735 L 264 412.9745430392595 L 265 412.7583925220944 L 266 412.54114433111556 L 267 412.32282063205537 L 268 412.1034437003799 L 269 411.8830359190161 L 270 411.66161977606794 L 271 411.439217862522 L 272 411.2158528699428 L 273 410.9915475881572 L 274 410.7663249029293 L 275 410.5402077936256 L 276 410.31321933087014 L 277 410.08538267419084 L 278 409.8567210696564 L 279 409.62725784750455 L 280 409.3970164197618 L 281 409.16602027785456 L 282 408.9342929902123 L 283 408.701858199863 L 284 408.4687396220209 L 285 408.2349610416667 L 286 408.00054631112073 L 287 407.7655193476096 L 288 407.52990413082574 L 289 407.2937247004807 L 290 407.05700515385263 L 291 406.81976964332733 L 292 406.5820423739342 L 293 406.34384760087664 L 294 406.1052096270572 L 295 405.866152800598 L 296 405.6267015123565 L 297 405.3868801934368 L 298 405.1467133126973 L 299 404.90622537425367 L 300 404.6654409149791 L 301 404.42438450200063 L 302 404.1830807301926 L 303 403.94155421966724 L 304 403.6998296132627 L 305 403.4579315740288 L 306 403.21588478271065 L 307 402.9737139352304 L 308 402.73144374016766 L 309 402.4890989162384 L 310 402.2467041897728 L 311 402.0042842921929 L 312 401.76186395748863 L 313 401.5194679196946 L 314 401.27712091036653 L 315 401.0348476560577 L 316 400.79267287579614 L 317 400.55062127856274 L 318 400.30871756077005 L 319 400.0669864037425 L 320 399.8254524711982 L 321 399.5841404067327 L 322 399.3430748313042 L 323 399.102280340722 L 324 398.86178150313657 L 325 398.6216028565331 L 326 398.3817689062279 L 327 398.1423041223678 L 328 397.90323293743415 L 329 397.66457974374936 L 330 397.42636889098833 L 331 397.18862468369434 L 332 396.95137137879874 L 333 396.7146331831467 L 334 396.47843425102667 L 335 396.2427986817066 L 336 396.00775051697457 L 337 395.77331373868617 L 338 395.53951226631744 L 339 395.3063699545245 L 340 395.0739105907096 L 341 394.8421578925942 L 342 394.6111355057988 L 343 394.3808670014307 L 344 394.15137587367906 L 345 393.92268553741735 L 346 393.6948193258148 L 347 393.4678004879558 L 348 393.2416521864672 L 349 393.01639749515573 L 350 392.7920593966533 L 351 392.5686607800724 L 352 392.34622443867056 L 353 392.1247730675248 L 354 391.90432926121616 L 355 391.6849155115242 L 356 391.46655420513235 L 357 391.24926762134373 L 358 391.03307792980803 L 359 390.8180071882594 L 360 390.60407734026626 L 361 390.391310212992 L 362 390.1797275149682 L 363 389.96935083387973 L 364 389.76020163436203 L 365 389.5523012558113 L 366 389.345670910207 L 367 389.1403316799476 L 368 388.93630451569993 L 369 388.7336102342612 L 370 388.5322695164352 L 371 388.3323029049222 L 372 388.1337308022231 L 373 387.9365734685578 L 374 387.74085101979784 L 375 387.5465834254141 L 376 387.35379050643945 L 377 387.16249193344623 L 378 386.9727072245394 L 379 386.784455743365 L 380 386.5977566971347 L 381 386.41262913466574 L 382 386.2290919444377 L 383 386.0471638526653 L 384 385.86686342138756 L 385 385.6882090465741 L 386 385.5112189562482 L 387 385.33591120862684 L 388 385.1623036902786 L 389 384.9904141142981 L 390 384.8202600184994 L 391 384.65185876362625 L 392 384.4852275315807 L 393 384.32038332367034 L 394 384.15734295887347 L 395 383.99612307212305 L 396 383.83674011260973 L 397 383.679210342103 L 398 383.5235498332926 L 399 383.3697744681482 L 400 383.21789993629915 L 401 383.0679417334338 L 402 382.9199151597182 L 403 382.7738353182352 L 404 382.62971711344346 L 405 382.4875752496568 L 406 382.34742422954383 L 407 382.2092783526483 L 408 382.0731517139302 L 409 381.9390582023275 L 410 381.8070114993391 L 411 381.6770250776292 L 412 381.54911219965214 L 413 381.42328591629973 L 414 381.2995590655696 L 415 381.177944271255 L 416 381.05845394165715 L 417 380.94110026831913 L 418 380.825895224782 L 419 380.71285056536306 L 420 380.60197782395664 L 421 380.4932883128572 L 422 380.3867931216054 L 423 380.2825031158563 L 424 380.1804289362709 L 425 380.0805809974307 L 426 379.98296948677455 L 427 379.88760436355983 L 428 379.79449535784596 L 429 379.7036519695017 L 430 379.615083467236 L 431 379.52879888765216 L 432 379.4448070343259 L 433 379.3631164769072 L 434 379.28373555024586 L 435 379.2066723535412 L 436 379.1319347495154 L 437 379.05953036361166 L 438 378.98946658321603 L 439 378.92175055690365 L 440 378.85638919370933 L 441 378.7933891624227 L 442 378.7327568909079 L 443 378.6744985654475 L 444 378.61862013011154 L 445 378.56512728615087 L 446 378.5140254914156 L 447 378.46531995979836 L 448 378.4190156607019 L 449 378.3751173185325 L 450 378.3336294122177 L 451 378.29455617474935 L 452 378.2579015927518 L 453 378.22366940607515 L 454 378.1918631074136 L 455 378.162485941949 L 456 378.13554090702 L 457 378.1110307518161 L 458 378.08895797709704 L 459 378.06932483493785 L 460 378.0521333284989 L 461 378.0373852118217 L 462 378.0250819896497 L 463 378.0152249172751 L 464 378.0078150004103 L 465 378.00285299508573 L 466 378.00033940757254 L 467 378.0002744943308 L 468 378.00265826198375 L 469 378.00749046731653 L 470 378.01477061730156 L 471 378.0244979691484 L 472 378.0366715303799 L 473 378.05129005893326 L 474 378.0683520632868 L 475 378.08785580261195 L 476 378.1097992869514 L 477 378.1341802774214 L 478 378.16099628644093 L 479 378.19024457798497 L 480 378.22192216786374 L 481 378.2560258240275 L 482 378.29255206689595 L 483 378.33149716971343 L 484 378.37285715892915 L 485 378.41662781460246 L 486 378.46280467083363 L 487 378.5113830162194 L 488 378.5623578943336 L 489 378.61572410423304 L 490 378.671476200988 L 491 378.7296084962378 L 492 378.7901150587713 L 493 378.85298971513186 L 494 378.9182260502473 L 495 378.9858174080847 L 496 379.0557568923289 L 497 379.12803736708673 L 498 379.2026514576148 L 499 379.279591551072 L 500 379.358849797296 L 501 379.44041810960476 L 502 379.52428816562104 L 503 379.61045140812183 L 504 379.69889904591133 L 505 379.78962205471794 L 506 379.88261117811504 L 507 379.9778569284654 L 508 380.07534958788915 L 509 380.1750792092553 L 510 380.2770356171967 L 511 380.38120840914826 L 512 380.48758695640817 L 513 380.59616040522235 L 514 380.7069176778922 L 515 380.81984747390425 L 516 380.9349382710837 L 517 381.05217832676976 L 518 381.1715556790138 L 519 381.2930581477997 L 520 381.41667333628675 L 521 381.5423886320745 L 522 381.6701912084894 L 523 381.8000680258938 L 524 381.9320058330159 L 525 382.0659911683024 L 526 382.2020103612914 L 527 382.3400495340076 L 528 382.4800946023781 L 529 382.6221312776692 L 530 382.7661450679447 L 531 382.9121212795442 L 532 383.06004501858223 L 533 383.20990119246824 L 534 383.361674511446 L 535 383.515349490154 L 536 383.6709104492052 L 537 383.82834151678696 L 538 383.98762663028026 L 539 384.14874953789854 L 540 384.31169380034606 L 541 384.47644279249516 L 542 384.6429797050823 L 543 384.8112875464234 L 544 384.9813491441471 L 545 385.1531471469473 L 546 385.32666402635317 L 547 385.5018820785178 L 548 385.6787834260244 L 549 385.85735001971017 L 550 386.03756364050827 L 551 386.21940590130623 L 552 386.40285824882227 L 553 386.58790196549825 L 554 386.77451817140934 L 555 386.9626878261903 L 556 387.1523917309783 L 557 387.3436105303717 L 558 387.5363247144047 L 559 387.7305146205384 L 560 387.92616043566636 L 561 388.1232421981366 L 562 388.32173979978796 L 563 388.521632988002 L 564 388.7229013677692 L 565 388.9255244037698 L 566 389.12948142246915 L 567 389.33475161422695 L 568 389.54131403542044 L 569 389.74914761058136 L 570 389.9582311345461 L 571 390.1685432746195 L 572 390.380062572751 L 573 390.59276744772455 L 574 390.8066361973601 L 575 391.0216470007281 L 576 391.23777792037555 L 577 391.45500690456475 L 578 391.673311789523 L 579 391.8926703017037 L 580 392.1130600600593 L 581 392.33445857832476 L 582 392.55684326731165 L 583 392.7801914372129 L 584 393.0044802999181 L 585 393.2296869713383 L 586 393.455788473741 L 587 393.68276173809437 L 588 393.91058360642126 L 589 394.1392308341618 L 590 394.36868009254516 L 591 394.5989079709695 L 592 394.82989097939094 L 593 395.06160555071983 L 594 395.2940280432258 L 595 395.5271347429493 L 596 395.7609018661215 L 597 395.99530556159107 L 598 396.2303219132573 L 599 396.46592694251046 L 600 396.7020966106785 L 601 396.93880682147926 L 602 397.1760334234795 L 603 397.4137522125587 L 604 397.6519389343787 L 605 397.8905692868584 L 606 398.1296189226534 L 607 398.3690634516398 L 608 398.60887844340317 L 609 398.8490394297307 L 610 399.089521907108 L 611 399.3303013392192 L 612 399.5713531594501 L 613 399.81265277339503 L 614 400.054175561366 L 615 400.2958968809045 L 616 400.53779206929624 L 617 400.7798364460869 L 618 401.0220053156007 L 619 401.2642739694599 L 620 401.5066176891058 L 621 401.74901174832064 L 622 401.99143141575075 L 623 402.2338519574296 L 624 402.4762486393013 L 625 402.7185967297446 L 626 402.96087150209587 L 627 403.20304823717214 L 628 403.44510222579316 L 629 403.6870087713024 L 630 403.92874319208676 L 631 404.17028082409524 L 632 404.41159702335494 L 633 404.65266716848555 L 634 404.89346666321165 L 635 405.13397093887227 L 636 405.37415545692727 L 637 405.6139957114614 L 638 405.8534672316844 L 639 406.0925455844278 L 640 406.33120637663785 L 641 406.5694252578643 L 642 406.80717792274476 L 643 407.0444401134849 L 644 407.28118762233305 L 645 407.51739629405046 L 646 407.75304202837543 L 647 407.98810078248283 L 648 408.2225485734366 L 649 408.45636148063704 L 650 408.68951564826136 L 651 408.92198728769773 L 652 409.1537526799722 L 653 409.384788178169 L 654 409.6150702098431 L 655 409.8445752794253 L 656 410.0732799706195 L 657 410.30116094879185 L 658 410.5281949633515 L 659 410.75435885012286 L 660 410.97962953370927 L 661 411.203984029847 L 662 411.4273994477506 L 663 411.64985299244825 L 664 411.8713219671077 L 665 412.09178377535187 L 666 412.3112159235644 L 667 412.52959602318475 L 668 412.7469017929923 L 669 412.9631110613798 L 670 413.1782017686156 L 671 413.39215196909447 L 672 413.60493983357617 L 673 413.81654365141344 L 674 414.02694183276657 L 675 414.23611291080636 L 676 414.4440355439045 L 677 414.6506885178109 L 678 414.8560507478182 L 679 415.060101280913 L 680 415.2628192979137 L 681 415.464184115595 L 682 415.6641751887975 L 683 415.8627721125245 L 684 416.0599546240238 L 685 416.2557026048549 L 686 416.4499960829417 L 687 416.64281523461074 L 688 416.83414038661294 L 689 417.0239520181316 L 690 417.21223076277374 L 691 417.3989574105461 L 692 417.58411290981513 L 693 417.7676783692509 L 694 417.94963505975454 L 695 418.1299644163689 L 696 418.3086480401733 L 697 418.4856677001601 L 698 418.6610053350953 L 699 418.83464305536114 L 700 419.00656314478124 L 701 419.17674806242843 L 702 419.34518044441427 L 703 419.51184310566066 L 704 419.6767190416534 L 705 419.839791430177 L 706 420.00104363303103 L 707 420.16045919772785 L 708 420.31802185917104 L 709 420.47371554131524 L 710 420.62752435880594 L 711 420.7794326186007 L 712 420.92942482156997 L 713 421.07748566407867 L 714 421.22360003954753 L 715 421.36775303999434 L 716 421.5099299575552 L 717 421.6501162859849 L 718 421.7882977221372 L 719 421.9244601674241 L 720 422.0585897292542 L 721 422.1906727224504 L 722 422.32069567064605 L 723 422.4486453076597 L 724 422.5745085788492 L 725 422.69827264244316 L 726 422.81992487085137 L 727 422.9394528519532 L 728 423.0568443903642 L 729 423.17208750867974 L 730 423.2851704486979 L 731 423.3960816726186 L 732 423.5048098642209 L 733 423.6113439300177 L 734 423.71567300038765 L 735 423.8177864306838 L 736 423.9176738023201 L 737 424.0153249238343 L 738 424.1107298319276 L 739 424.20387879248125 L 740 424.29476230155 L 741 424.38337108633146 L 742 424.46969610611217 L 743 424.5537285531904 L 744 424.6354598537744 L 745 424.71488166885734 L 746 424.7919858950682 L 747 424.8667646654984 L 748 424.9392103505046 L 749 425.009315558487 L 750 425.0770731366438 L 751 425.1424761717004 L 752 425.20551799061565 L 753 425.26619216126176 L 754 425.32449249308115 L 755 425.380413037718 L 756 425.4339480896249 L 757 425.4850921866453 L 758 425.53384011057074 L 759 425.58018688767294 L 760 425.62412778921174 L 761 425.6656583319173 L 762 425.7047742784475 L 763 425.7414716378204 L 764 425.77574666582143 L 765 425.80759586538534 L 766 425.83701598695296 L 767 425.864004028803 L 768 425.8885572373579 L 769 425.91067310746524 L 770 425.930349382653 L 771 425.9475840553599 L 772 425.9623753671403 L 773 425.97472180884347 L 774 425.98462212076765 L 775 425.9920752927886 L 776 425.9970805644627 L 777 425.9996374251043 L 778 425.9997456138381 L 779 425.99740511962574 L 780 425.99261618126667 L 781 425.9853792873741 L 782 425.97569517632496 L 783 425.9635648361846 L 784 425.94898950460606 L 785 425.9319706687036 L 786 425.9125100649013 L 787 425.8906096787555 L 788 425.86627174475245 L 789 425.83949874608027 L 790 425.81029341437574 L 791 425.7786587294453 L 792 425.7445979189612 L 793 425.7081144581322 L 794 425.6692120693489 L 795 425.627894721804 L 796 425.58416663108756 L 797 425.5380322587563 L 798 425.4894963118789 L 799 425.4385637425556 L 800 425.38523974741287 L 801 425.32952976707327 L 802 425.2714394856004 L 803 425.21097482991877 L 804 425.14814196920923 L 805 425.0829473142795 L 806 425.01539751691007 L 807 424.94549946917556 L 808 424.8732603027414 L 809 424.7986873881364 L 810 424.7217883340005 L 811 424.64257098630867 L 812 424.5610434275702 L 813 424.47721397600424 L 814 424.39109118469105 L 815 424.30268384069905 L 816 424.21200096418875 L 817 424.11905180749204 L 818 424.0238458541685 L 819 423.9263928180374 L 820 423.8267026421871 L 821 423.72478549796 L 822 423.62065178391526 L 823 423.5143121247675 L 824 423.40577737030304 L 825 423.2950585942727 L 826 423.1821670932619 L 827 423.0671143855384 L 828 422.94991220987663 L 829 422.83057252436043 L 830 422.7091075051628 L 831 422.5855295453034 L 832 422.45985125338433 L 833 422.3320854523036 L 834 422.20224517794685 L 835 422.0703436778571 L 836 421.9363944098836 L 837 421.80041104080806 L 838 421.66240744495076 L 839 421.52239770275486 L 840 421.3803960993495 L 841 421.2364171230927 L 842 421.0904754640927 L 843 420.94258601270957 L 844 420.79276385803564 L 845 420.6410242863561 L 846 420.4873827795892 L 847 420.33185501370684 L 848 420.17445685713506 L 849 420.01520436913495 L 850 419.85411379816424 L 851 419.6912015802195 L 852 419.5264843371588 L 853 419.3599788750064 L 854 419.1917021822375 L 855 419.02167142804535 L 856 418.84990396058913 L 857 418.6764173052241 L 858 418.50122916271346 L 859 418.32435740742244 L 860 418.14582008549434 L 861 417.96563541300964 L 862 417.7838217741271 L 863 417.6003977192082 L 864 417.4153819629245 L 865 417.22879338234804 L 866 417.0406510150254 L 867 416.8509740570352 L 868 416.6597818610299 L 869 416.4670939342608 L 870 416.27292993658796 L 871 416.0773096784742 L 872 415.88025311896405 L 873 415.68178036364714 L 874 415.48191166260693 L 875 415.28066740835453 L 876 415.07806813374816 L 877 414.87413450989806 L 878 414.6688873440576 L 879 414.4623475775003 L 880 414.2545362833828 L 881 414.0454746645955 L 882 413.8351840515987 L 883 413.62368590024624 L 884 413.4110017895968 L 885 413.19715341971187 L 886 412.9821626094416 L 887 412.76605129419914 L 888 412.5488415237219 L 889 412.33055545982234 L 890 412.1112153741266 L 891 411.89084364580214 L 892 411.6694627592746 L 893 411.4470953019334 L 894 411.22376396182744 L 895 410.99949152535 L 896 410.77430087491405 L 897 410.5482149866175 L 898 410.32125692789907 L 899 410.0934498551845 L 900 409.86481701152394 L 901 409.6353817242209 L 902 409.4051674024515 L 903 409.1741975348766 L 904 408.94249568724496 L 905 408.7100854999889 L 906 408.4769906858124 L 907 408.2432350272715 L 908 408.00884237434803 L 909 407.77383664201585 L 910 407.5382418078012 L 911 407.30208190933615 L 912 407.0653810419058 L 913 406.82816335599034 L 914 406.5904530548004 L 915 406.3522743918081 L 916 406.1136516682724 L 917 405.87460923075935 L 918 405.63517146865826 L 919 405.3953628116934 L 920 405.155207727431 L 921 404.9147307187833 L 922 404.67395632150834 L 923 404.4329091017064 L 924 404.191613653314 L 925 403.950094595594 L 926 403.70837657062435 L 927 403.46648424078313 L 928 403.22444228623306 L 929 402.98227540240276 L 930 402.7400082974674 L 931 402.49766568982767 L 932 402.25527230558777 L 933 402.0128528760326 L 934 401.7704321351044 L 935 401.52803481687926 L 936 401.2856856530435 L 937 401.0434093703703 L 938 400.8012306881966 L 939 400.55917431590143 L 940 400.31726495038447 L 941 400.07552727354647 L 942 399.83398594977075 L 943 399.59266562340684 L 944 399.3515909162562 L 945 399.1107864250596 L 946 398.87027671898784 L 947 398.63008633713514 L 948 398.390239786015 L 949 398.1507615370602 L 950 397.9116760241257 L 951 397.6730076409957 L 952 397.43478073889514 L 953 397.19701962400455 L 954 396.9597485549806 L 955 396.72299174048067 L 956 396.48677333669315 L 957 396.2511174448724 L 958 396.0160481088802 L 959 395.78158931273214 L 960 395.5477649781508 L 961 395.3145989621248 L 962 395.08211505447514 L 963 394.85033697542724 L 964 394.6192883731913 L 965 394.3889928215494 L 966 394.1594738174502 L 967 393.9307547786115 L 968 393.70285904113115 L 969 393.47580985710584 L 970 393.24963039225867 L 971 393.02434372357595 L 972 392.79997283695235 L 973 392.57654062484556 L 974 392.3540698839409 L 975 392.13258331282526 L 976 391.91210350967094 L 977 391.69265296993035 L 978 391.4742540840405 L 979 391.2569291351389 L 980 391.04070029678945 L 981 390.8255896307206 L 982 390.611619084574 L 983 390.3988104896656 L 984 390.18718555875796 L 985 389.97676588384485 L 986 389.7675729339485 L 987 389.55962805292876 L 988 389.35295245730566 L 989 389.14756723409465 L 990 388.9434933386551 L 991 388.7407515925522 L 992 388.5393626814326 L 993 388.3393471529136 L 994 388.14072541448724 L 995 387.9435177314375 L 996 387.7477442247732 L 997 387.55342486917465 L 998 387.3605794909558 L 999 387.16922776604144 L 1000 386.97938921795964 L 1001 386.79108321584954 L 1002 386.6043289724855 L 1003 386.41914554231664 L 1004 386.23555181952264 L 1005 386.05356653608624 L 1006 385.87320825988166 L 1007 385.6944953927804 L 1008 385.51744616877374 L 1009 385.34207865211204 L 1010 385.168410735462 L 1011 384.9964601380807 L 1012 384.82624440400826 L 1013 384.65778090027715 L 1014 384.4910868151409 L 1015 384.3261791563197 L 1016 384.163074749266 L 1017 384.00179023544683 L 1018 383.8423420706466 L 1019 383.6847465232879 L 1020 383.5290196727714 L 1021 383.3751774078358 L 1022 383.2232354249361 L 1023 383.07320922664263 L 1024 382.925114120059 L 1025 382.7789652152605 L 1026 382.6347774237522 L 1027 382.4925654569479 L 1028 382.3523438246687 L 1029 382.214126833663 L 1030 382.07792858614636 L 1031 381.9437629783631 L 1032 381.81164369916803 L 1033 381.6815842286302 L 1034 381.5535978366572 L 1035 381.4276975816414 L 1036 381.30389630912765 L 1037 381.1822066505025 L 1038 381.06264102170553 L 1039 380.9452116219625 L 1040 380.8299304325409 L 1041 380.71680921552706 L 1042 380.6058595126265 L 1043 380.4970926439861 L 1044 380.3905197070391 L 1045 380.286151575373 L 1046 380.1839988976201 L 1047 380.08407209637073 L 1048 379.9863813671103 L 1049 379.89093667717873 L 1050 379.7977477647536 L 1051 379.7068241378564 L 1052 379.618175073383 L 1053 379.53180961615624 L 1054 379.44773657800386 L 1055 379.3659645368591 L 1056 379.2865018358854 L 1057 379.2093565826255 L 1058 379.1345366481738 L 1059 379.06204966637375 L 1060 378.9919030330385 L 1061 378.9241039051966 L 1062 378.8586592003617 L 1063 378.79557559582685 L 1064 378.73485952798296 L 1065 378.6765171916624 L 1066 378.62055453950677 L 1067 378.5669772813596 L 1068 378.5157908836837 L 1069 378.4670005690036 L 1070 378.42061131537247 L 1071 378.3766278558645 L 1072 378.3350546780917 L 1073 378.29589602374614 L 1074 378.2591558881673 L 1075 378.2248380199341 L 1076 378.1929459204828 L 1077 378.16348284374965 L 1078 378.13645179583864 L 1079 378.1118555347151 L 1080 378.0896965699243 L 1081 378.06997716233496 L 1082 378.0526993239093 L 1083 378.03786481749705 L 1084 378.02547515665617 L 1085 378.0155316054979 L 1086 378.00803517855826 L 1087 378.0029866406942 L 1088 378.00038650700566 L 1089 378.0002350427831 L 1090 378.00253226348036 L 1091 378.0072779347131 L 1092 378.0144715722827 L 1093 378.0241124422255 L 1094 378.03619956088806 L 1095 378.05073169502737 L 1096 378.0677073619364 L 1097 378.0871248295957 L 1098 378.10898211685003 L 1099 378.13327699361054 L 1100 378.1600069810821 L 1101 378.18916935201656 L 1102 378.22076113099064 L 1103 378.2547790947097 L 1104 378.29121977233666 L 1105 378.3300794458461 L 1106 378.37135415040336 L 1107 378.41503967476956 L 1108 378.4611315617308 L 1109 378.50962510855317 L 1110 378.56051536746253 L 1111 378.61379714614924 L 1112 378.6694650082981 L 1113 378.72751327414295 L 1114 378.78793602104594 L 1115 378.85072708410223 L 1116 378.91588005676863 L 1117 378.98338829151754 L 1118 379.053244900515 L 1119 379.12544275632337 L 1120 379.19997449262894 L 1121 379.2768325049931 L 1122 379.3560089516284 L 1123 379.4374957541985 L 1124 379.5212845986427 L 1125 379.607366936024 L 1126 379.6957339834012 L 1127 379.78637672472547 L 1128 379.8792859117597 L 1129 379.9744520650226 L 1130 380.0718654747555 L 1131 380.1715162019132 L 1132 380.2733940791783 L 1133 380.3774887119979 L 1134 380.48378947964477 L 1135 380.59228553630084 L 1136 380.70296581216354 L 1137 380.81581901457554 L 1138 380.9308336291768 L 1139 381.0479979210794 L 1140 381.16729993606475 L 1141 381.28872750180346 L 1142 381.4122682290972 L 1143 381.53790951314267 L 1144 381.66563853481773 L 1145 381.79544226198936 L 1146 381.9273074508434 L 1147 382.06122064723553 L 1148 382.1971681880642 L 1149 382.33513620266484 L 1150 382.4751106142246 L 1151 382.61707714121906 L 1152 382.7610212988691 L 1153 382.9069284006189 L 1154 383.0547835596343 L 1155 383.2045716903218 L 1156 383.3562775098678 L 1157 383.5098855397976 L 1158 383.665380107555 L 1159 383.8227453481011 L 1160 383.98196520553313 L 1161 384.14302343472275 L 1162 384.30590360297333 L 1163 384.47058909169664 L 1164 384.6370630981084 L 1165 384.80530863694264 L 1166 384.97530854218496 L 1167 385.1470454688236 L 1168 385.3205018946193 L 1169 385.49566012189325 L 1170 385.6725022793325 L 1171 385.85101032381345 L 1172 386.03116604224294 L 1173 386.21295105341625 L 1174 386.3963468098928 L 1175 386.5813345998884 L 1176 386.7678955491844 L 1177 386.9560106230533 L 1178 387.14566062820126 L 1179 387.3368262147258 L 1180 387.5294878780907 L 1181 387.72362596111543 L 1182 387.91922065598123 L 1183 388.1162520062518 L 1184 388.3146999089095 L 1185 388.51454411640674 L 1186 388.71576423873137 L 1187 388.9183397454874 L 1188 389.12224996798955 L 1189 389.3274741013721 L 1190 389.5339912067117 L 1191 389.7417802131634 L 1192 389.95081992011114 L 1193 390.1610889993303 L 1194 390.37256599716386 L 1195 390.5852293367116 L 1196 390.79905732003135 L 1197 391.0140281303528 L 1198 391.2301198343036 L 1199 391.44731038414716 L 1200 391.6655776200321 L 1201 391.8848992722533 L 1202 392.1052529635239 L 1203 392.32661621125885 L 1204 392.54896642986824 L 1205 392.7722809330621 L 1206 392.99653693616506 L 1207 393.2217115584407 L 1208 393.4477818254265 L 1209 393.67472467127766 L 1210 393.9025169411205 L 1211 394.13113539341515 L 1212 394.3605567023267 L 1213 394.5907574601049 L 1214 394.82171417947313 L 1215 395.05340329602393 L 1216 395.285801170624 L 1217 395.5188840918256 L 1218 395.7526282782861 L 1219 395.9870098811943 L 1220 396.22200498670355 L 1221 396.45758961837197 L 1222 396.69373973960853 L 1223 396.9304312561255 L 1224 397.16764001839704 L 1225 397.40534182412273 L 1226 397.6435124206973 L 1227 397.8821275076849 L 1228 398.1211627392986 L 1229 398.36059372688413 L 1230 398.60039604140877 L 1231 398.84054521595306 L 1232 399.08101674820796 L 1233 399.3217861029741 L 1234 399.56282871466556 L 1235 399.80411998981623 L 1236 400.0456353095888 L 1237 400.287350032287 L 1238 400.5292394958694 L 1239 400.7712790204658 L 1240 401.01344391089555 L 1241 401.2557094591868 L 1242 401.4980509470978 L 1243 401.7404436486385 L 1244 401.9828628325937 L 1245 402.2252837650462 L 1246 402.4676817119003 L 1247 402.7100319414056 L 1248 402.95230972668026 L 1249 403.19449034823396 L 1250 403.4365490964898 L 1251 403.6784612743057 L 1252 403.92020219949393 L 1253 404.1617472073398 L 1254 404.40307165311776 L 1255 404.64415091460626 L 1256 404.8849603945998 L 1257 405.1254755234184 L 1258 405.3656717614148 L 1259 405.6055246014778 L 1260 405.845009571533 L 1261 406.0841022370399 L 1262 406.3227782034842 L 1263 406.56101311886744 L 1264 406.7987826761915 L 1265 407.03606261593825 L 1266 407.2728287285453 L 1267 407.50905685687553 L 1268 407.7447228986824 L 1269 407.9798028090686 L 1270 408.21427260293956 L 1271 408.4481083574506 L 1272 408.68128621444794 L 1273 408.9137823829026 L 1274 409.145573141338 L 1275 409.3766348402503 L 1276 409.6069439045212 L 1277 409.83647683582336 L 1278 410.06521021501794 L 1279 410.2931207045441 L 1280 410.52018505079997 L 1281 410.74638008651533 L 1282 410.9716827331152 L 1283 411.1960700030748 L 1284 411.41951900226474 L 1285 411.64200693228696 L 1286 411.8635110928009 L 1287 412.0840088838394 L 1288 412.30347780811485 L 1289 412.5218954733145 L 1290 412.73923959438486 L 1291 412.9554879958057 L 1292 413.17061861385287 L 1293 413.3846094988487 L 1294 413.59743881740224 L 1295 413.80908485463647 L 1296 414.01952601640414 L 1297 414.2287408314908 L 1298 414.4367079538057 L 1299 414.64340616455945 L 1300 414.84881437442925 L 1301 415.05291162571035 L 1302 415.2556770944547 L 1303 415.45709009259514 L 1304 415.6571300700568 L 1305 415.8557766168532 L 1306 416.05300946516894 L 1307 416.2488084914279 L 1308 416.44315371834585 L 1309 416.63602531696915 L 1310 416.8274036086979 L 1311 417.01726906729346 L 1312 417.2056023208708 L 1313 417.3923841538753 L 1314 417.5775955090428 L 1315 417.7612174893444 L 1316 417.9432313599144 L 1317 418.12361854996175 L 1318 418.3023606546649 L 1319 418.4794394370495 L 1320 418.65483682984933 L 1321 418.8285349373495 L 1322 419.0005160372124 L 1323 419.170762582286 L 1324 419.339257202394 L 1325 419.50598270610817 L 1326 419.6709220825026 L 1327 419.8340585028889 L 1328 419.99537532253356 L 1329 420.15485608235616 L 1330 420.3124845106084 L 1331 420.46824452453467 L 1332 420.62212023201283 L 1333 420.77409593317554 L 1334 420.9241561220124 L 1335 421.0722854879516 L 1336 421.2184689174225 L 1337 421.3626914953975 L 1338 421.5049385069135 L 1339 421.64519543857375 L 1340 421.78344798002837 L 1341 421.91968202543455 L 1342 422.0538836748956 L 1343 422.18603923587926 L 1344 422.3161352246148 L 1345 422.4441583674686 L 1346 422.5700956022987 L 1347 422.6939340797872 L 1348 422.8156611647515 L 1349 422.9352644374334 L 1350 423.05273169476635 L 1351 423.1680509516204 L 1352 423.2812104420251 L 1353 423.3921986203699 L 1354 423.50100416258243 L 1355 423.60761596728344 L 1356 423.7120231569198 L 1357 423.8142150788743 L 1358 423.91418130655234 L 1359 424.01191164044593 L 1360 424.1073961091744 L 1361 424.2006249705014 L 1362 424.2915887123295 L 1363 424.38027805367 L 1364 424.4666839455906 L 1365 424.550797572138 L 1366 424.63261035123776 L 1367 424.71211393556996 L 1368 424.7893002134206 L 1369 424.8641613095094 L 1370 424.9366895857935 L 1371 425.00687764224625 L 1372 425.07471831761274 L 1373 425.1402046901403 L 1374 425.2033300782846 L 1375 425.26408804139146 L 1376 425.322472380354 L 1377 425.3784771382451 L 1378 425.43209660092526 L 1379 425.4833252976255 L 1380 425.53215800150554 L 1381 425.5785897301872 L 1382 425.62261574626274 L 1383 425.664231557778 L 1384 425.7034329186911 L 1385 425.74021582930516 L 1386 425.7745765366769 L 1387 425.80651153499923 L 1388 425.8360175659591 L 1389 425.8630916190697 L 1390 425.88773093197796 L 1391 425.90993299074626 L 1392 425.9296955301087 L 1393 425.94701653370254 L 1394 425.96189423427387 L 1395 425.9743271138577 L 1396 425.9843139039331 L 1397 425.9918535855526 L 1398 425.9969453894458 L 1399 425.9995887960984 L 1400 425.9997835358048 L 1401 425.99752958869584 L 1402 425.9928271847407 L 1403 425.98567680372344 L 1404 425.9760791751942 L 1405 425.9640352783944 L 1406 425.94954634215753 L 1407 425.93261384478285 L 1408 425.91323951388534 L 1409 425.89142532621895 L 1410 425.86717350747523 L 1411 425.840486532056 L 1412 425.81136712282097 L 1413 425.7798182508101 L 1414 425.74584313494006 L 1415 425.7094452416764 L 1416 425.6706282846792 L 1417 425.6293962244247 L 1418 425.5857532678009 L 1419 425.5397038676785 L 1420 425.49125272245647 L 1421 425.4404047755828 L 1422 425.38716521504995 L 1423 425.3315394728657 L 1424 425.2735332244988 L 1425 425.2131523882999 L 1426 425.1504031248978 L 1427 425.0852918365709 L 1428 425.01782516659375 L 1429 424.94800999855954 L 1430 424.87585345567754 L 1431 424.80136290004646 L 1432 424.72454593190326 L 1433 424.6454103888477 L 1434 424.56396434504256 L 1435 424.48021611039013 L 1436 424.394174229684 L 1437 424.30584748173743 L 1438 424.21524487848774 L 1439 424.1223756640766 L 1440 424.0272493139071 L 1441 423.9298755336766 L 1442 423.83026425838693 L 1443 423.72842565133044 L 1444 423.6243701030532 L 1445 423.51810823029456 L 1446 423.4096508749043 L 1447 423.29900910273625 L 1448 423.18619420251923 L 1449 423.0712176847054 L 1450 422.9540912802956 L 1451 422.8348269396428 L 1452 422.71343683123246 L 1453 422.58993334044123 L 1454 422.4643290682732 L 1455 422.33663683007404 L 1456 422.2068696542239 L 1457 422.0750407808077 L 1458 421.94116366026435 L 1459 421.80525195201466 L 1460 421.66731952306725 L 1461 421.5273804466041 L 1462 421.38544900054455 L 1463 421.24153966608833 L 1464 421.0956671262383 L 1465 420.94784626430226 L 1466 420.7980921623743 L 1467 420.6464200997963 L 1468 420.4928455515986 L 1469 420.3373841869213 L 1470 420.18005186741567 L 1471 420.02086464562535 L 1472 419.8598387633491 L 1473 419.69699064998315 L 1474 419.53233692084524 L 1475 419.3658943754792 L 1476 419.1976799959409 L 1477 419.02771094506573 L 1478 418.8560045647174 L 1479 418.6825783740184 L 1480 418.50745006756284 L 1481 418.3306375136108 L 1482 418.15215875226545 L 1483 417.9720319936322 L 1484 417.7902756159609 L 1485 417.6069081637708 L 1486 417.42194834595824 L 1487 417.2354150338879 L 1488 417.04732725946724 L 1489 416.857704213205 L 1490 416.66656524225294 L 1491 416.4739298484318 L 1492 416.2798176862417 L 1493 416.08424856085685 L 1494 415.8872424261046 L 1495 415.68881938242987 L 1496 415.48899967484397 L 1497 415.2878036908593 L 1498 415.085251958409 L 1499 414.88136514375276 L 1500 414.67616404936786 L 1501 414.4696696118272 L 1502 414.2619028996627 L 1503 414.0528851112158 L 1504 413.842637572475 L 1505 413.63118173489926 L 1506 413.41853917323004 L 1507 413.2047315832896 L 1508 412.9897807797672 L 1509 412.77370869399425 L 1510 412.55653737170553 L 1511 412.33828897079064 L 1512 412.1189857590331 L 1513 411.89865011183815 L 1514 411.67730450994986 L 1515 411.4549715371578 L 1516 411.23167387799225 L 1517 411.00743431541014 L 1518 410.7822757284703 L 1519 410.5562210899994 L 1520 410.3292934642475 L 1521 410.1015160045353 L 1522 409.87291195089176 L 1523 409.6435046276827 L 1524 409.4133174412313 L 1525 409.1823738774296 L 1526 408.9506974993428 L 1527 408.71831194480444 L 1528 408.48524092400527 L 1529 408.25150821707376 L 1530 408.0171376716499 L 1531 407.782153200452 L 1532 407.5465787788371 L 1533 407.3104384423544 L 1534 407.07375628429327 L 1535 406.8365564532248 L 1536 406.5988631505381 L 1537 406.36070062797086 L 1538 406.12209318513527 L 1539 405.88306516703824" stroke-linecap="round" stroke-linejoin="round" stroke-miterlimit="10" stroke-width="10"/></g></svg>